<svg width="500" height="500" viewBox="0 0 500 500" fill="none" xmlns="http://www.w3.org/2000/svg">
<circle cx="250" cy="250" r="250" fill="#8ABF63"/>
<path d="M310.922 90.5L317.362 89L326.279 102H330.242L333.214 103L333.71 108L329.747 110.5L328.756 114L325.288 119L329.747 134.5L345.599 138L350.553 150L355.506 176L359.965 195.5V209L358.479 229L356.497 245L356.992 252.5L361.451 263L355.506 258L356.992 267.5L353.029 259L352.039 269.5L349.066 260V269.5L349.09 271.5L349.562 311L372.845 332L397.613 367L410.493 381L388.201 405L393.65 387V377.5L332.719 318L320.334 279L317.362 278.5L300.024 306L296.061 314.5L302.996 337.5L302.005 406H273.769L288.135 397.5L292.593 392V387.5L289.621 369L277.237 308.5L300.024 230H299.033V208H298.042L285.658 220L269.806 233L264.852 239.5L257.421 235.5L256.431 237.5L259.898 240V244.5L255.44 243L249.991 240.5V237.5L251.972 233.5L249 233L253.954 230L261.384 229.5L279.218 210L290.612 196.5L296.556 182V178.5V174.5L300.024 157L304.482 145.5L311.418 138L316.867 136L314.885 122L310.922 119L308.445 115.5L306.959 113L305.473 111.5L303.492 109V105L305.968 104.5V100L307.455 93L310.922 90.5Z" fill="#FFDCB1"/>
<path d="M349.09 271.5L349.562 311L372.845 332L397.613 367L410.493 381L388.201 405L393.65 387V377.5L332.719 318L320.334 279L317.362 278.5L300.024 306L296.061 314.5L302.996 337.5L302.005 406H273.769L288.135 397.5L292.593 392V387.5L289.621 369L277.237 308.5L300.024 230H299.033V208H298.042L285.658 220L269.806 233L264.852 239.5L257.421 235.5L256.431 237.5L259.898 240V244.5L255.44 243L249.991 240.5V237.5L251.972 233.5L249 233L253.954 230L261.384 229.5L279.218 210L290.612 196.5L296.556 182C296.556 181 296.556 178.9 296.556 178.5C296.556 178.1 296.556 175.667 296.556 174.5L300.024 157L304.482 145.5L311.418 138L316.867 136L314.885 122L310.922 119L308.445 115.5L306.959 113L305.473 111.5L303.492 109V105L305.968 104.5V100L307.455 93L310.922 90.5L317.362 89L326.279 102H330.242L333.214 103L333.71 108L329.747 110.5L328.756 114L325.288 119L329.747 134.5L345.599 138L350.553 150L355.506 176L359.965 195.5V209L358.479 229L356.497 245L356.992 252.5L361.451 263L355.506 258L356.992 267.5L353.029 259L352.039 269.5L349.066 260V269.5L349.09 271.5ZM349.09 271.5L347.085 269.5L346.094 251.5L338.663 255L338.168 254.5L348.571 244.5L350.057 208L340.645 178.5L336.682 186L334.7 197L336.682 208L341.14 217L337.177 219L348.571 242" stroke="#FFDCB1"/>
<path d="M299.487 128.5L304.357 144.5L309.714 139L316.044 135.5L314.583 125L313.609 122.5L311.175 120.5L308.74 117L307.279 114.5L306.305 112.5L302.896 109V105.5L305.331 104.5L307.279 96L309.714 91.5L316.044 90L317.505 91.5L322.375 97L326.271 102.5L331.628 102L332.115 103.5L332.602 106L332.115 110.5H329.193L328.219 114.5L325.784 119L329.193 134H332.115L341.367 135.5L346.237 137L350.133 143.5L353.055 155.5L357.925 177.5L355.49 179L356.951 188L368.151 184.5L379.352 177L384.222 166L385.196 155.5V140L379.352 129.5L373.995 125L367.664 122.5L354.029 119.5L349.159 116L342.341 106L337.472 94.5L330.167 86.5L322.375 83.5L316.044 83L309.714 85.5L302.409 92.5L299 101.5V119L299.487 128.5Z" fill="#925A15" stroke="#925A15"/>
<path d="M309.852 138L316.292 136V138.5L315.301 143.5L317.778 145.5L323.227 143.5L327.686 138L329.172 133H335.116L342.547 134.5L347.005 138L351.464 143.5L353.941 149L354.932 154.5L356.913 177.5L342.547 185.5L340.566 179.5L337.098 188L334.621 197L335.612 203L338.089 208.5L342.547 217L325.209 225L310.843 229L298.458 229.5V205.5L299.449 178.5H294L295.982 164L299.449 156.5L302.917 146.5L309.852 138Z" fill="#EE9444" stroke="#EE9444"/>
<path d="M338.933 140.48L342.556 135L348.996 138.5L354.941 149L356.427 161.5L357.418 172.5V178.28L342.556 186L336.319 154.52V146.96L338.933 140.48Z" fill="#F28729"/>
<path d="M303.39 146L309.861 138.5L306.526 146.96L303.39 157.76L300.254 168.02V178.28H295L296.486 163.5L303.39 146Z" fill="#F28729"/>
<path d="M338.933 140.48L342.556 135L348.996 138.5L354.941 149L356.427 161.5L357.418 172.5V178.28L342.556 186L336.319 154.52V146.96L338.933 140.48Z" stroke="#F28729"/>
<path d="M303.39 146L309.861 138.5L306.526 146.96L303.39 157.76L300.254 168.02V178.28H295L296.486 163.5L303.39 146Z" stroke="#F28729"/>
<path d="M311 229L299 230.5L295.5 242.5L288.5 267L277 306H302L318.5 281.5L326 301.5L350 293.5V261L348 271.5L345 251.5L338.5 256V254L348 246L349 242.5L345 232.5L340 219L311 229Z" fill="black" stroke="black"/>
<path d="M413.5 378.5L405.5 375L400.5 381.5L393 386L385 399.5V405.5L389.5 406.5L402.5 395L413.5 378.5Z" fill="black" stroke="black"/>
<path d="M305 406.5L304 398L294 399L284.5 398L270 405.5V408.5H305V406.5Z" fill="black" stroke="black"/>
<path d="M112.5 263.5L131.5 262L141 272.5L137 280L137.5 290L143.5 298L151.5 305.5L172.5 313.5L198 316L222 318L227 320.5L279 344H285L289.5 342.5L294 333.5L296 345.5L294 350L290.5 355L286 356.5L281 355L284 360H274.5L262.5 349L268 359.5L260.5 360L255 355L250.5 346.5L251.5 350L250.5 356.5L245 352L242 346.5V353L235 339.5V361L243.5 366L250.5 368L254 372L250.5 388L245 407L238.5 416.5L223 416L224 410L227 407L234 402L238 395L237.5 383.5H224V394.5L211 416H193.5L197.5 410L202.5 409L211 399.5L212.5 395.5L208 386.5L198.5 380L193.5 372L190.5 360L171 368L153 372L151 383L144.5 402.5L138 417L121 416.5L125 411.5L132.5 408L134 368L127 360L126 367L123 364.5L121 370.5L98.5 384V387L99.5 394L95 398H91L89 392.5V383L91 376L111.5 346V315.5L110 314.5L109.5 307L111.5 306.5V293.5H110L88 287.5V283.5L86 274L107 269.5L112.5 263.5Z" fill="#E4AD8E" stroke="#E4AD8E"/>
<path d="M127 275L124 263L131 262L137 268L139 271V273.5L131 281.5L127 275Z" fill="#E09E78" stroke="#E09E78"/>
<path d="M129 347.5L135.5 356.5L134.5 343.5L132 333.5L139 345V322.5L144.5 329.5V317.5L143 312" stroke="#E09E78"/>
<path d="M126.754 306.222L110 307.689L110.493 316L124.783 315.022L137.594 308.667L144 299.378L141.043 294L137.594 299.378L126.754 306.222Z" fill="#68A683" stroke="#68A683"/>
<path d="M115.405 358.73L111.716 347L88 380.66V389.33L90.6351 398H95.3784L99.5946 394.43V391.88L98.0135 384.74L123.047 369.95V364.34L119.095 362.3L116.459 354.65L115.405 358.73Z" fill="#E09E78"/>
<path d="M127 366.38L123.047 364.34M123.047 364.34L119.095 362.3L116.459 354.65L115.405 358.73L111.716 347L88 380.66V389.33L90.6351 398H95.3784L99.5946 394.43V391.88L98.0135 384.74L123.047 369.95V364.34Z" stroke="#E09E78"/>
<path d="M194.833 357L189 360L191.121 370.5L196.424 378.5L205.439 384L212.864 393.5V397.5L202.788 408L194.833 412L192.712 417H211.273L224 393.5V384L214.455 380.5L202.788 373L196.424 363.5L194.833 357Z" fill="#E09E78" stroke="#E09E78"/>
<path d="M272 342.024L228.5 320H227L231.5 328.195L233.5 337.415L243 355.341L241.5 347.146L250 357.39V345.61L259 360.463H267L263 348.683L270.5 358.415L279 362L284.5 360.463L281 355.341L286 358.415L290.5 357.39L294.5 350.22L296 342.024L293 333.829L290.5 343.561L282.5 345.61L272 342.024Z" fill="#E09E78" stroke="#E09E78"/>
<path d="M151 294.75L150 293L144 298V298.5L152 296.5L151 294.75ZM151 294.75L231 257" stroke="#68A683" stroke-width="2"/>
<path d="M228 245V255L231 258.5L234 260.5L237 262.5L240.5 263L244.5 262.5L248 260.5L251 257.5L253 254V248.5L250.5 244L247.5 241L245 239L242.5 238H237L233.5 239.5L228 245Z" fill="#68A683" stroke="#68A683"/>
<path d="M234.5 245.5L237.5 243L242.5 242.5L245 244L246.5 245.5L247 249.5L246 254L242.5 257L238.5 256.5L236 255L233.5 252V249L234.5 245.5Z" fill="#80BF9C" stroke="#80BF9C"/>
<path d="M248 236.5L244 238.5L239 238L246.5 233.5L250 233L248 236.5Z" fill="#80BF9C"/>
<path d="M249 259L265 240L261 237.25L257 234.5L255.5 236.5L258.5 238L259.5 242L252.5 249L249 259Z" fill="#80BF9C"/>
<path d="M248 236.5L244 238.5L239 238L246.5 233.5L250 233L248 236.5Z" stroke="#80BF9C"/>
<path d="M249 259L265 240L261 237.25L257 234.5L255.5 236.5L258.5 238L259.5 242L252.5 249L249 259Z" stroke="#80BF9C"/>
</svg>
