<svg width="1279" height="742" viewBox="0 0 1279 742" fill="none" xmlns="http://www.w3.org/2000/svg">
<path d="M285 142.5C285 221.201 221.201 285 142.5 285C63.7994 285 0 221.201 0 142.5C0 63.7994 63.7994 0 142.5 0C221.201 0 285 63.7994 285 142.5ZM36.9913 142.5C36.9913 200.771 84.2292 248.009 142.5 248.009C200.771 248.009 248.009 200.771 248.009 142.5C248.009 84.2292 200.771 36.9913 142.5 36.9913C84.2292 36.9913 36.9913 84.2292 36.9913 142.5Z" fill="#6DBF56" fill-opacity="0.75"/>
<path d="M433 453.5C433 499.063 396.063 536 350.5 536C304.937 536 268 499.063 268 453.5C268 407.937 304.937 371 350.5 371C396.063 371 433 407.937 433 453.5ZM289.416 453.5C289.416 487.236 316.764 514.584 350.5 514.584C384.236 514.584 411.584 487.236 411.584 453.5C411.584 419.764 384.236 392.416 350.5 392.416C316.764 392.416 289.416 419.764 289.416 453.5Z" fill="#8ABF63" fill-opacity="0.75"/>
<path d="M994 659.5C994 705.063 957.063 742 911.5 742C865.937 742 829 705.063 829 659.5C829 613.937 865.937 577 911.5 577C957.063 577 994 613.937 994 659.5ZM850.416 659.5C850.416 693.236 877.764 720.584 911.5 720.584C945.236 720.584 972.584 693.236 972.584 659.5C972.584 625.764 945.236 598.416 911.5 598.416C877.764 598.416 850.416 625.764 850.416 659.5Z" fill="#6DBF56" fill-opacity="0.75"/>
<path d="M1279 629.5C1279 646.345 1265.34 660 1248.5 660C1231.66 660 1218 646.345 1218 629.5C1218 612.655 1231.66 599 1248.5 599C1265.34 599 1279 612.655 1279 629.5ZM1225.92 629.5C1225.92 641.972 1236.03 652.083 1248.5 652.083C1260.97 652.083 1271.08 641.972 1271.08 629.5C1271.08 617.028 1260.97 606.917 1248.5 606.917C1236.03 606.917 1225.92 617.028 1225.92 629.5Z" fill="#6DBF56" fill-opacity="0.75"/>
<path d="M1025 50.5C1025 67.3447 1011.34 81 994.5 81C977.655 81 964 67.3447 964 50.5C964 33.6553 977.655 20 994.5 20C1011.34 20 1025 33.6553 1025 50.5ZM971.917 50.5C971.917 62.972 982.028 73.0826 994.5 73.0826C1006.97 73.0826 1017.08 62.972 1017.08 50.5C1017.08 38.028 1006.97 27.9174 994.5 27.9174C982.028 27.9174 971.917 38.028 971.917 50.5Z" fill="#8ABF63" fill-opacity="0.75"/>
<circle cx="478.5" cy="192.5" r="49.5" fill="#6DBF56" fill-opacity="0.75"/>
<circle cx="812" cy="329" r="160" fill="#8ABF63" fill-opacity="0.75"/>
<circle cx="112" cy="617" r="30" fill="#8ABF63" fill-opacity="0.75"/>
<circle cx="595" cy="638" r="102" fill="#6DBF56" fill-opacity="0.75"/>
<ellipse cx="1177" cy="294.5" rx="81" ry="76.5" fill="#6DBF56" fill-opacity="0.75"/>
</svg>
