<svg width="450" height="423" viewBox="0 0 450 423" fill="none" xmlns="http://www.w3.org/2000/svg">
<path d="M335 112L326 109.5V140L329 167V187H319L317.5 226.5L336.5 231.5L357.5 233H381L398 231.5L396.5 214.5L394 200L390.5 185.5L363.5 187L349.5 124.5V108L335 112Z" fill="#EBF2B3" stroke="#EBF2B3"/>
<path d="M316 145L306.5 124.5L318 97.5L324 85.5L333 82L325.5 110V140L328 165V186H316L319.5 150.5L316 145Z" fill="#7C5073"/>
<path d="M364.5 186L392 184L383.5 162L385 131L406 157.5L422.5 201L440 195V193L422.5 147L387 102L375 85.5L363 80.5H353.5L350 106V124.5L364.5 186Z" fill="#7C5073"/>
<path d="M316 145L306.5 124.5L318 97.5L324 85.5L333 82L325.5 110V140L328 165V186H316L319.5 150.5L316 145Z" stroke="#7C5073"/>
<path d="M364.5 186L392 184L383.5 162L385 131L406 157.5L422.5 201L440 195V193L422.5 147L387 102L375 85.5L363 80.5H353.5L350 106V124.5L364.5 186Z" stroke="#7C5073"/>
<path d="M322 244L320 228L336.5 233H345L377 234.5L392 233V244L386 253.5L380 260.5L365 307.5L357 347.5L346.5 394L341 399H334L329 396L326.5 389.5L341 300.5L353.5 253.5L322 244Z" fill="#7C5073" stroke="#7C5073"/>
<path d="M316 146.5L305.5 125L295 143.5L258.5 187.5L271.5 200.5L308.5 159L316 146.5Z" fill="#673E60"/>
<path d="M351 253.5V260L341.5 296.5L337.5 313.5L328.5 296.5L322 244L351 253.5Z" fill="#673E60"/>
<path d="M357.5 348L364.5 313.5L397 370V376.5L393 381.5L386 384L379 381.5L357.5 348Z" fill="#673E60"/>
<path d="M316 146.5L305.5 125L295 143.5L258.5 187.5L271.5 200.5L308.5 159L316 146.5Z" stroke="#673E60"/>
<path d="M351 253.5V260L341.5 296.5L337.5 313.5L328.5 296.5L322 244L351 253.5Z" stroke="#673E60"/>
<path d="M357.5 348L364.5 313.5L397 370V376.5L393 381.5L386 384L379 381.5L357.5 348Z" stroke="#673E60"/>
<path d="M325.5 404.5L327 393L329.5 397.5L333.5 399.5H339L344.5 397.5L343 404.5L341.5 407.5L339 409.5H333.5L329.5 407.5L325.5 404.5Z" fill="#FDC0AD"/>
<path d="M387.5 393L382.5 384L386.5 383L391 382L395.5 378L397.5 374.5L402 380.5V385.5L398.5 390L393.5 393H387.5Z" fill="#FDC0AD"/>
<path d="M325.5 404.5L327 393L329.5 397.5L333.5 399.5H339L344.5 397.5L343 404.5L341.5 407.5L339 409.5H333.5L329.5 407.5L325.5 404.5Z" stroke="#FDC0AD"/>
<path d="M387.5 393L382.5 384L386.5 383L391 382L395.5 378L397.5 374.5L402 380.5V385.5L398.5 390L393.5 393H387.5Z" stroke="#FDC0AD"/>
<path d="M339.5 410L343.5 406L347 416.5L342 422H305.5L303.5 420L302 418L303.5 412.5L324.5 404.5V406L332.5 410H339.5Z" fill="#3E3E3E"/>
<path d="M393.5 394.5H387.5L380.5 410V418L384 421H388.5L410 397.5L413 390.5L410 386L403 382V386L398.5 390.5L393.5 394.5Z" fill="#3E3E3E"/>
<path d="M339.5 410L343.5 406L347 416.5L342 422H305.5L303.5 420L302 418L303.5 412.5L324.5 404.5V406L332.5 410H339.5Z" stroke="#3E3E3E"/>
<path d="M393.5 394.5H387.5L380.5 410V418L384 421H388.5L410 397.5L413 390.5L410 386L403 382V386L398.5 390.5L393.5 394.5Z" stroke="#3E3E3E"/>
<path d="M441 195.5L422.5 201.5L426 211.5L443.5 205L441 195.5Z" fill="#EBF2B3"/>
<path d="M258 188L271.5 201.5L263 209L249.5 196.5L258 188Z" fill="#EBF2B3"/>
<path d="M441 195.5L422.5 201.5L426 211.5L443.5 205L441 195.5Z" stroke="#EBF2B3"/>
<path d="M258 188L271.5 201.5L263 209L249.5 196.5L258 188Z" stroke="#EBF2B3"/>
<path d="M243.5 204L249.5 197.5L262.5 209.5L258 215L254.5 218L252.5 219.5L249.5 221H247L243.5 218L241 215V209.5H242.5H245.5L247 208L245.5 206H242.5L243.5 204Z" fill="#F6A89B"/>
<path d="M444.5 206L426.5 212V216.5L431.5 223.5L436.5 227.5H444.5L449.5 221.5V216.5L446 212L444.5 206Z" fill="#F6A89B"/>
<path d="M243.5 204L249.5 197.5L262.5 209.5L258 215L254.5 218L252.5 219.5L249.5 221H247L243.5 218L241 215V209.5H242.5H245.5L247 208L245.5 206H242.5L243.5 204Z" stroke="#F6A89B"/>
<path d="M444.5 206L426.5 212V216.5L431.5 223.5L436.5 227.5H444.5L449.5 221.5V216.5L446 212L444.5 206Z" stroke="#F6A89B"/>
<path d="M257 217L261 223H259L255 219.5L257 217Z" fill="#7F787C"/>
<path d="M245 208L232.5 210.5L213.5 228.5L165 285L141.5 307.5L101.5 337.5L73.5 352.5L65 356.5M261 223L257 217L255 219.5L259 223H261Z" stroke="#7F787C" stroke-width="3"/>
<path d="M65 355V359.5L57 361.5L47 364H36.5H17V358L51 356.5L61.5 353.5L65 355Z" fill="#8C3929" stroke="#8C3929"/>
<path d="M63 341V353.5L48.5 355.5L51 350.5L48.5 346L42 343.5L32 341L24 336V327L27.5 320L36.5 315H46L55.5 303L63 296L67 298.5L70 303V322L67 329L63 341Z" fill="#FF6922" stroke="#FF6922"/>
<path d="M27.5 315.5H35.5L27.5 319.5L24 327V337L32 341L39.5 344.5L47.5 346.5L50 350.5L47.5 356.5L16 358V356.5V353.5L9.50002 349L2.50002 344.5C3.16669 342.667 4.10002 339 2.50002 339C0.900018 339 3.16668 337.667 4.50002 337L9.50002 331.5H12L18 329L21.5 323L27.5 315.5Z" fill="#F6CB8F"/>
<path d="M12 378.5L16 365H47.5L45 378.5H43.5V387.5L41.5 385.5V393.5V402.5H34L24 399.5V402.5L19.75 396.75L18 395.5V387.5L16 393.5L13.5 384L12 385.5L13.5 378.5H12Z" fill="#F6CB8F"/>
<path d="M33 403.5L39.5 409.5L27.5 415.5L19.75 411.5H24L30 403.5H33Z" fill="#F6CB8F"/>
<path d="M45 408H57L58.5 417L54 421H47.5L50 417L45 408Z" fill="#F6CB8F"/>
<path d="M57 402.5V405.5L59.5 406.5L78.5 408L90.5 405.5L102.5 402.5L101 401L97.5 399.5L80.5 403.5L57 402.5Z" fill="#F6CB8F"/>
<path d="M102.5 408H92.5L95 417L92.5 421H99L104 417L102.5 408Z" fill="#F6CB8F"/>
<path d="M121 403.5L110.5 409.5L118 417L116.5 421H123.5L125.5 413L121 403.5Z" fill="#F6CB8F"/>
<path d="M127 378.5L123.5 371H121V375.5L122.5 394.5L123.5 390.5L125.5 385.5L124 377.5L127 378.5Z" fill="#F6CB8F"/>
<path d="M21.5 398L19.75 396.75M19.75 396.75L18 395.5V387.5L16 393.5L13.5 384L12 385.5L13.5 378.5H12L16 365H47.5L45 378.5H43.5V387.5L41.5 385.5V393.5V402.5H34L24 399.5V402.5L19.75 396.75ZM35.5 315.5H27.5L21.5 323L18 329L12 331.5H9.50002L4.50002 337C3.16668 337.667 0.900018 339 2.50002 339C4.10002 339 3.16669 342.667 2.50002 344.5L9.50002 349L16 353.5V356.5V358L47.5 356.5L50 350.5L47.5 346.5L39.5 344.5L32 341L24 337V327L27.5 319.5L35.5 315.5ZM39.5 409.5L33 403.5H30L24 411.5H19.75L27.5 415.5L39.5 409.5ZM57 408H45L50 417L47.5 421H54L58.5 417L57 408ZM57 405.5V402.5L80.5 403.5L97.5 399.5L101 401L102.5 402.5L90.5 405.5L78.5 408L59.5 406.5L57 405.5ZM92.5 408H102.5L104 417L99 421H92.5L95 417L92.5 408ZM110.5 409.5L121 403.5L125.5 413L123.5 421H116.5L118 417L110.5 409.5ZM123.5 371L127 378.5L124 377.5L125.5 385.5L123.5 390.5L122.5 394.5L121 375.5V371H123.5Z" stroke="#F6CB8F"/>
<path d="M47 364L47.5 365L47 374V379.5H44V390L41.5 387V402.5L44 406.5H57L55.5 402.5H80.5L99 399L110 410L121 402.5V383.5V370.5H123.5L126 369V366L125 362.5L123.5 360.5H121H118.5H112H102H95L84.5 365H69.5L64.5 360.5L47 364Z" fill="#FF6922" stroke="#FF6922"/>
<path d="M2.5 331H9L4.5 335.5L1 338V332.5L2.5 331Z" fill="#781E00" stroke="#781E00"/>
<path d="M39.5 409L35.5 404.5H41.5L43 406.5L39.5 409Z" fill="#C94F23"/>
<path d="M104 406.5H92.5L101.5 403L104 404.5V406.5Z" fill="#C94F23"/>
<path d="M29.5 302L27 315L37 313.5L43 315L39.5 302L35.5 296H31.5L29.5 302Z" fill="#C94F23"/>
<path d="M39.5 409L35.5 404.5H41.5L43 406.5L39.5 409Z" stroke="#C94F23"/>
<path d="M104 406.5H92.5L101.5 403L104 404.5V406.5Z" stroke="#C94F23"/>
<path d="M29.5 302L27 315L37 313.5L43 315L39.5 302L35.5 296H31.5L29.5 302Z" stroke="#C94F23"/>
<path d="M64.5 322.5L51.5 315.5L61.5 302L64.5 303.5L67.5 309L64.5 322.5Z" fill="#F6CB8F" stroke="#F6CB8F"/>
<path d="M313.5 82L321.5 88.5L326.5 83.5L333.5 82V77.5L329 75.5L321.5 68.5L317.5 59.5L316 50.5V44L320 35L326.5 30H333.5L341 26L350 19.5L352.5 28.5L353.5 33.5L356.5 37.5L360.5 46L364.5 44H369L372.5 47L374 50.5L372.5 55.5L369 59.5H364L358.5 68.5L352.5 74L353.5 80L362 79.5L369 82L376 63V50.5L374 33.5V21L369 10.5L364.5 5.5L358.5 2H354.5H350H348L341 1L331.5 2L323 7L316 14.5L310.5 22.5L306.5 31.5L304 40L301.5 49V60.5L304 68.5L308 75.5L313.5 82Z" fill="#673E60" stroke="#673E60"/>
<path d="M322 68.5L329 74.5L334 77.5V81.5L326 109L331 111.5H338L349.5 107.5L352.5 81.5V77.5V73L359.5 67L364 58.5H369L372.5 53.5V48.5L369 44H366.5L359.5 46.5L357 39L352.5 33L349.5 21.5L343.5 25.5L334 31H326L320 35L316 44L317.5 58.5L322 68.5Z" fill="#FDC0AD" stroke="#FDC0AD"/>
</svg>
