<svg xmlns="http://www.w3.org/2000/svg" viewBox="0 0 500 500"><g id="freepik--background-simple--inject-76"><path d="M330.49,47.67S250.25,17.78,172.41,62.78,56.15,198.56,23.08,271.25s-12.58,147.33,47.69,182,100.36-14.81,184.29-16.18,106.67,11.12,175.74-36.24,80.26-161.12,24.25-246.11S330.49,47.67,330.49,47.67Z" style="fill:#8ABF63"></path><path d="M330.49,47.67S250.25,17.78,172.41,62.78,56.15,198.56,23.08,271.25s-12.58,147.33,47.69,182,100.36-14.81,184.29-16.18,106.67,11.12,175.74-36.24,80.26-161.12,24.25-246.11S330.49,47.67,330.49,47.67Z" style="fill:#fff;opacity:0.7000000000000001"></path></g><g id="freepik--Floor--inject-76"><line x1="497.43" y1="448.82" x2="3.49" y2="448.82" style="fill:none;stroke:#263238;stroke-linecap:round;stroke-linejoin:round"></line></g><g id="freepik--Stripes--inject-76"><polygon points="486.96 39.73 485.02 37.83 223.93 291.4 236.24 303.35 486.96 59.84 486.96 39.73" style="opacity:0.14"></polygon><polygon points="486.96 127.94 271.3 337.4 283.6 349.35 486.96 151.84 486.96 127.94" style="opacity:0.14"></polygon><polygon points="486.96 81.94 247.61 314.4 259.92 326.35 486.96 105.84 486.96 81.94" style="opacity:0.14"></polygon><polygon points="486.96 219.94 318.66 383.4 330.96 395.35 486.96 243.83 486.96 219.94" style="opacity:0.14"></polygon><polygon points="486.96 311.94 366.02 429.4 378.32 441.35 486.96 335.83 486.96 311.94" style="opacity:0.14"></polygon><polygon points="486.96 265.94 342.34 406.4 354.64 418.35 486.96 289.83 486.96 265.94" style="opacity:0.14"></polygon><polygon points="486.96 173.94 294.98 360.4 307.28 372.35 486.96 197.84 486.96 173.94" style="opacity:0.14"></polygon></g><g id="freepik--Pictures--inject-76"><polyline points="220.08 46.29 289.91 46.29 289.91 169.11 194.54 169.11 194.54 46.29 212.69 46.29" style="fill:none;stroke:#263238;stroke-linecap:round;stroke-linejoin:round"></polyline><polyline points="253.66 159.13 202.29 159.13 202.29 56.27 282.16 56.27 282.16 159.13 260.12 159.13" style="fill:none;stroke:#263238;stroke-linecap:round;stroke-linejoin:round"></polyline><polyline points="225.83 98.9 225.83 86.59 258.62 86.59 258.62 128.81 225.83 128.81 225.83 104.44" style="fill:none;stroke:#263238;stroke-linecap:round;stroke-linejoin:round"></polyline><polyline points="319.4 62.95 354.31 62.95 354.31 124.36 306.63 124.36 306.63 62.95 315.7 62.95" style="fill:none;stroke:#263238;stroke-linecap:round;stroke-linejoin:round"></polyline><polyline points="336.19 119.37 310.5 119.37 310.5 67.94 350.44 67.94 350.44 119.37 339.42 119.37" style="fill:none;stroke:#263238;stroke-linecap:round;stroke-linejoin:round"></polyline><polyline points="322.27 89.25 322.27 83.1 338.67 83.1 338.67 104.21 322.27 104.21 322.27 92.02" style="fill:none;stroke:#263238;stroke-linecap:round;stroke-linejoin:round"></polyline><polyline points="324.4 136.47 342.96 136.47 342.96 169.11 317.62 169.11 317.62 136.47 322.44 136.47" style="fill:none;stroke:#263238;stroke-linecap:round;stroke-linejoin:round"></polyline><polyline points="333.33 166.46 319.68 166.46 319.68 139.12 340.9 139.12 340.9 166.46 335.05 166.46" style="fill:none;stroke:#263238;stroke-linecap:round;stroke-linejoin:round"></polyline><polyline points="325.93 150.45 325.93 147.18 334.64 147.18 334.64 158.4 325.93 158.4 325.93 151.92" style="fill:none;stroke:#263238;stroke-linecap:round;stroke-linejoin:round"></polyline></g><g id="freepik--Plant--inject-76"><path d="M80,167.22s.48,60.3.48,76.22S80,328.58,80,328.58" style="fill:none;stroke:#263238;stroke-linecap:round;stroke-linejoin:round;stroke-width:3px"></path><polygon points="116.14 182.65 101.18 170.11 143.15 174.93 106 162.87 144.12 156.12 101.18 156.12 134.47 131.03 96.84 149.85 118.55 112.7 89.6 145.99 99.73 97.26 80.92 142.61 78.99 91.95 75.13 143.57 54.6 97.97 68.86 147.92 38.15 114.42 65 155.64 26.99 128.52 62.58 162.87 22.29 140.85 59.21 165.77 25.81 161.42 58.24 170.59 32.27 174.93 59.21 173.97 43.29 184.58 80.92 174.45 116.14 182.65" style="fill:#8ABF63"></polygon><polygon points="116.14 182.65 101.18 170.11 143.15 174.93 106 162.87 144.12 156.12 101.18 156.12 134.47 131.03 96.84 149.85 118.55 112.7 89.6 145.99 99.73 97.26 80.92 142.61 78.99 91.95 75.13 143.57 54.6 97.97 68.86 147.92 38.15 114.42 65 155.64 26.99 128.52 62.58 162.87 22.29 140.85 59.21 165.77 25.81 161.42 58.24 170.59 32.27 174.93 59.21 173.97 43.29 184.58 80.92 174.45 116.14 182.65" style="fill:#fff;opacity:0.30000000000000004"></polygon><polygon points="100.05 313.51 85.09 300.97 127.06 305.79 89.92 293.73 128.03 286.98 85.09 286.98 118.38 261.89 80.75 280.7 102.46 243.56 73.51 276.84 83.64 228.12 64.83 273.47 62.9 222.81 59.04 274.43 38.51 228.83 52.77 278.77 22.06 245.28 48.91 286.49 10.9 259.38 46.49 293.73 6.2 271.71 43.12 296.63 9.72 292.27 42.15 301.45 16.18 305.79 43.12 304.83 27.2 315.44 64.83 305.31 100.05 313.51" style="fill:#8ABF63"></polygon><polygon points="100.05 313.51 85.09 300.97 127.06 305.79 89.92 293.73 128.03 286.98 85.09 286.98 118.38 261.89 80.75 280.7 102.46 243.56 73.51 276.84 83.64 228.12 64.83 273.47 62.9 222.81 59.04 274.43 38.51 228.83 52.77 278.77 22.06 245.28 48.91 286.49 10.9 259.38 46.49 293.73 6.2 271.71 43.12 296.63 9.72 292.27 42.15 301.45 16.18 305.79 43.12 304.83 27.2 315.44 64.83 305.31 100.05 313.51" style="fill:#fff;opacity:0.30000000000000004"></polygon><path d="M65.48,228S64,240.55,65,245.37a88.67,88.67,0,0,1,1.44,16.89c0,6.27.49,6.75.49,11.1s-.49,41.23-.49,44.6v10.5" style="fill:none;stroke:#263238;stroke-linecap:round;stroke-linejoin:round;stroke-width:3px"></path><path d="M66.93,268.53s1.93-10.61,3.86-15.44,3.37-3.38,3.86-9.16.48-8.21,1.44-10.14a38.86,38.86,0,0,0,1.93-5.3l1-3.86" style="fill:none;stroke:#263238;stroke-linecap:round;stroke-linejoin:round;stroke-width:3px"></path><polygon points="101.18 240.55 86.22 228 128.2 232.83 91.05 220.77 129.16 214.01 86.22 214.01 119.51 188.93 81.88 207.74 103.59 170.59 74.64 203.88 84.78 155.15 65.96 200.5 64.03 149.85 60.17 201.47 45.22 154.67 53.9 205.81 27.36 167.7 50.04 213.53 15.24 190.79 47.63 220.77 11.71 206.06 44.25 223.66 10.54 220.75 43.29 228.49 20.52 233.68 44.25 231.86 28.33 242.48 65.96 232.35 101.18 240.55" style="fill:#8ABF63"></polygon><polygon points="101.18 240.55 86.22 228 128.2 232.83 91.05 220.77 129.16 214.01 86.22 214.01 119.51 188.93 81.88 207.74 103.59 170.59 74.64 203.88 84.78 155.15 65.96 200.5 64.03 149.85 60.17 201.47 45.22 154.67 53.9 205.81 27.36 167.7 50.04 213.53 15.24 190.79 47.63 220.77 11.71 206.06 44.25 223.66 10.54 220.75 43.29 228.49 20.52 233.68 44.25 231.86 28.33 242.48 65.96 232.35 101.18 240.55" style="fill:#fff;opacity:0.30000000000000004"></polygon><rect x="58.64" y="324.5" width="30.79" height="123.97" style="fill:#263238;stroke:#263238;stroke-linecap:round;stroke-linejoin:round"></rect></g><g id="freepik--Sofa--inject-76"><path d="M66.32,281.62H437.55a8.27,8.27,0,0,1,8.27,8.27v77.64a0,0,0,0,1,0,0H58.05a0,0,0,0,1,0,0V289.89A8.27,8.27,0,0,1,66.32,281.62Z" style="fill:#c9c9c9;stroke:#263238;stroke-linecap:round;stroke-linejoin:round"></path><path d="M150.86,272.81s-31.32-2.84-35.71-3.41-6.6,2.84-5,6.25,1.1,21,1.1,21-6,54.58-6.59,58-4.95,13.07-1.1,13.07H228.88s3.29-8.53,2.19-10.8a53.3,53.3,0,0,1-2.19-5.68s-1.65-56.28-1.1-58,2.94-14.76,2.94-14.76.9-4-3.49-4a22.85,22.85,0,0,0-8.24,1.7Z" style="fill:#e0e0e0;stroke:#263238;stroke-linecap:round;stroke-linejoin:round"></path><path d="M360,272.81s31.31-2.84,35.71-3.41,6.59,2.84,4.94,6.25-1.1,21-1.1,21,6.05,54.58,6.6,58,4.94,13.07,1.09,13.07H281.93s-3.3-8.53-2.2-10.8a54.36,54.36,0,0,0,2.2-5.68s1.65-56.28,1.1-58-2.94-14.76-2.94-14.76-.91-4,3.49-4a22.92,22.92,0,0,1,8.24,1.7Z" style="fill:#e0e0e0;stroke:#263238;stroke-linecap:round;stroke-linejoin:round"></path><polygon points="436.36 328.73 396.77 367.74 437.56 367.74 436.36 328.73" style="fill:#263238;stroke:#263238;stroke-linecap:round;stroke-linejoin:round"></polygon><rect x="58.05" y="366.3" width="387.77" height="27.12" style="fill:#c9c9c9;stroke:#263238;stroke-linecap:round;stroke-linejoin:round"></rect><rect x="58.05" y="393.35" width="387.77" height="55.48" style="fill:#c9c9c9;stroke:#263238;stroke-linecap:round;stroke-linejoin:round"></rect><rect x="21.15" y="326.31" width="46.65" height="122.51" rx="7.78" style="fill:#c9c9c9;stroke:#263238;stroke-linecap:round;stroke-linejoin:round"></rect><rect x="433.67" y="326.31" width="46.65" height="122.51" rx="7.78" style="fill:#c9c9c9;stroke:#263238;stroke-linecap:round;stroke-linejoin:round"></rect></g><g id="freepik--Dog--inject-76"><path d="M317.93,355s-20.64,1.57-28.68.87-22.74-5.42-25.36-7.52l-2.62-2.1s.17,5.07,1.57,7,11.89,5.94,11.89,5.94-7-1-5.94.88,8.39,1.92,8.39,1.92l3.5-.17s-5.07,1.57-2.27,2.44a65.82,65.82,0,0,0,18.18,2.45c7.35-.17,28.51-3,28.51-3Z" style="fill:#8ABF63;stroke:#263238;stroke-linecap:round;stroke-linejoin:round"></path><path d="M346.31,208.05s-7.63-7.42-13.36-9.54-11.24-2.55-16.33.42a41.35,41.35,0,0,0-9.33,8.06s-11.45-2.33-13.15-3.18-5.72-1.28-7,3.18,1.7,14.63,5.52,17.39,17,7.63,17,7.63a66.18,66.18,0,0,1-6.78,1.49c-3,.42-7-.43-7.64.85a3,3,0,0,0,1.91,3.81c1.7.64,4.24-.42,8.48.85A68.49,68.49,0,0,1,316,243.68s.43,13.36.43,14-11.88,18.24-13.57,19.73a12.5,12.5,0,0,1-3.4,2.12S282.9,269.76,275.27,263s-9.76-9.12-11.24-11-7.43-6.36-10-11.24c0,0-2.33-2.76-4.24-2.55a16.78,16.78,0,0,0-3.61.85s-3.18,2.12-3.39,5.51a9.69,9.69,0,0,0,4.67,8.7c3,1.7,12.3,7.42,12.3,7.42s11,13.79,14.42,19.09,16.11,22.69,20.14,23.54,13.36-2.55,13.36-2.55l3.61,6.79,3.18,8.69s-10.6-1.9-14.63,6.79,3,21.63,6.57,25.45a142.5,142.5,0,0,0,11,9.75s-14.42,1.28-16.33,1.28-6.36-2.76-10.6-1.28-4.25,6.58-2.76,8.06,8.48,3,10,3.18,41.53-3.16,44.07-3.37,13.58-.16,13.58-.16a63.8,63.8,0,0,0,18.27,1.84c10.39-.43,29.05-1.06,31.6-.85s7-.85,7.42-2.55,1.7-3.81-3-4.45-7.21-.63-8.91.21-4,1.7-4,1.7l-4.24-.21-5.51-.43s14.21-8.69,18.87-11,13.79-16.55,9.55-23.54-7.43-5.94-13.58-5.31-10.39.64-10.39.64l-3.6-.64s-16.54-48.77-17.39-49.83S359.25,240.07,354.16,228,348,210,346.31,208.05Z" style="fill:#8ABF63;stroke:#263238;stroke-linecap:round;stroke-linejoin:round"></path><path d="M367.59,353.42s-11.35,6.13-16.34,7.94-13.15,0-13.15,0l6.35,4.31h12s-.68-1.16,1.59-4.08S367.59,353.42,367.59,353.42Z" style="fill:#263238;stroke:#263238;stroke-linecap:round;stroke-linejoin:round"></path><path d="M331.39,278.6a18.65,18.65,0,0,0-.35,4.95" style="fill:none;stroke:#263238;stroke-linecap:round;stroke-linejoin:round"></path><path d="M342.07,257.25s-6.67,8.58-9.66,17.52" style="fill:none;stroke:#263238;stroke-linecap:round;stroke-linejoin:round"></path><path d="M318.11,270.82s3,9.76,3.81,14.42" style="fill:none;stroke:#263238;stroke-linecap:round;stroke-linejoin:round"></path><path d="M250.42,238.21s-2.76.48-2.66,2.28a10.59,10.59,0,0,0,1.71,4.19" style="fill:none;stroke:#263238;stroke-linecap:round;stroke-linejoin:round"></path><path d="M244.33,240.87s-2.74,2.46-1.51,3.65,3.6,3.11,3.6,3.11" style="fill:#8ABF63;stroke:#263238;stroke-linecap:round;stroke-linejoin:round"></path><path d="M251.37,247.15s-3.52.1-4.09,2.09,2.19,3.9,4,4.09,5.51-2.28,4.94-4.28S252.7,246.49,251.37,247.15Z" style="fill:#263238;stroke:#263238;stroke-linecap:round;stroke-linejoin:round"></path><path d="M251.18,241.25s-2,1.24-1.52,2.1,3.14,2.47,3.61,1.14S252.23,241.06,251.18,241.25Z" style="fill:#263238;stroke:#263238;stroke-linecap:round;stroke-linejoin:round"></path><path d="M246.9,242.78s-2.28,1.14-1.62,2.37,3.14,2.1,3.33,1.34S248.14,242.4,246.9,242.78Z" style="fill:#263238;stroke:#263238;stroke-linecap:round;stroke-linejoin:round"></path><path d="M243.76,247.06a4.39,4.39,0,0,0,.48,2.37c.57.67,2.18,0,1.8-.76S244.9,246.58,243.76,247.06Z" style="fill:#263238;stroke:#263238;stroke-linecap:round;stroke-linejoin:round"></path><path d="M332.1,201.26a12.53,12.53,0,0,1,.85,3.18c0,1.06-7.42,8.27-8.27,15.27s3.82,24.6,6.36,23.75S343.34,230.1,344,230.1s7-1.48,7.42-4.24-3.6-13.15-5.3-15.48" style="fill:#8ABF63;stroke:#263238;stroke-linecap:round;stroke-linejoin:round"></path><path d="M287.16,212.81c.75-1.72,2.08-4.37,3.59-5.61a20.21,20.21,0,0,0,3.39-3.39c-1.7-.85-5.72-1.28-7,3.18A14,14,0,0,0,287.16,212.81Z" style="fill:#263238;stroke:#263238;stroke-linecap:round;stroke-linejoin:round"></path><line x1="309.62" y1="232.01" x2="313.86" y2="232.65" style="fill:none;stroke:#263238;stroke-linecap:round;stroke-linejoin:round"></line><path d="M312.38,229.47a32.87,32.87,0,0,1,3.18,7" style="fill:none;stroke:#263238;stroke-linecap:round;stroke-linejoin:round"></path><path d="M315,208.19c-.58,1.21-1.49,2-2,1.74s-.48-1.45.1-2.66,1.49-2,2-1.74S315.62,207,315,208.19Z" style="fill:#263238"></path><path d="M355.4,365.9s.55.23,1.53-2.75c1.09-3.35,9.41-9.23,19.5-15.41s14.27-13.17,14.27-13.17" style="fill:none;stroke:#263238;stroke-linecap:round;stroke-linejoin:round"></path><path d="M387,361.16s-12.26-.4-15.59-1" style="fill:none;stroke:#263238;stroke-linecap:round;stroke-linejoin:round"></path><line x1="317.47" y1="358.19" x2="326.68" y2="357.02" style="fill:none;stroke:#263238;stroke-linecap:round;stroke-linejoin:round"></line><path d="M315.59,318.22s5.68,18.85,8.32,26S333.33,357,335.55,359" style="fill:none;stroke:#263238;stroke-linecap:round;stroke-linejoin:round"></path><path d="M298,360.49a5,5,0,0,0-4.71,2.63,4,4,0,0,0,1,5.13" style="fill:none;stroke:#263238;stroke-linecap:round;stroke-linejoin:round"></path><path d="M293.56,358.41s-4.85,1-5,3.74a5.83,5.83,0,0,0,1.8,5" style="fill:none;stroke:#263238;stroke-linecap:round;stroke-linejoin:round"></path><path d="M404.7,359.79a3.3,3.3,0,0,1,.42,4.16c-1.39,2.64-3.19,2.91-3.19,2.91" style="fill:none;stroke:#263238;stroke-linecap:round;stroke-linejoin:round"></path><path d="M409.72,359.89a3.29,3.29,0,0,1-.17,3.37,9,9,0,0,1-3.19,3.05" style="fill:none;stroke:#263238;stroke-linecap:round;stroke-linejoin:round"></path><path d="M335.5,299.66s1.06,10,4.66,14.85,7,8.48,7,9.12-5.73,25.66-8.27,32-2.51,6.92-2.51,6.92-6.64,2.19-7.48,3.46a3.42,3.42,0,0,0,1.8,5.13c2.75.85,8.19,0,9.88-.24s2.76-1.27,3.61-3,.85-4.24,1.06-5.51,14.21-31.6,15.69-35.21,2.76-4.88,4.25-9.33,4.66-12.51,4.87-24.17a86.81,86.81,0,0,0-2.12-20.79" style="fill:#8ABF63;stroke:#263238;stroke-linecap:round;stroke-linejoin:round"></path><path d="M334.72,364.63s-2.7-.29-3.86,1.55-1.87,4.26-.16,5" style="fill:none;stroke:#263238;stroke-linecap:round;stroke-linejoin:round"></path><path d="M339.17,364.83s-3.77.48-4.64,2.22-.58,3.77.87,4.06" style="fill:none;stroke:#263238;stroke-linecap:round;stroke-linejoin:round"></path></g><g id="freepik--Character--inject-76"><polyline points="218.39 315.07 206.39 319.62 204.03 290.71" style="fill:#fff;stroke:#263238;stroke-linecap:round;stroke-linejoin:round"></polyline><polyline points="204.03 290.71 215.84 289.07 218.39 315.07" style="fill:#fff;stroke:#263238;stroke-linecap:round;stroke-linejoin:round"></polyline><path d="M212.09,251.15s3,29.16,3.32,30.08,2.4,5.9,2.4,9.41-6.09,7.2-8.3,7.75a15,15,0,0,1-3.14.56Z" style="fill:#8ABF63;stroke:#263238;stroke-linecap:round;stroke-linejoin:round"></path><path d="M215.41,281.23s-2.39,5-6.27,6.64" style="fill:none;stroke:#263238;stroke-linecap:round;stroke-linejoin:round"></path><path d="M152.48,221.62S141,231,135,238.23s-10.15,17.35-9.23,23.25,2.77,50.75,2.77,50.75-4.61,11.26-4.8,13.29,1.11,11.07,1.11,12.18a1.66,1.66,0,0,0,2.58,1.48c1.66-.74,24.73-12.37,37.47-14.4s40.6-2.58,40.6-2.58,3.51-37.1,4.61-43,2.77-30.64,3.14-33.78a16,16,0,0,0-.92-9c-1.48-4.06-3.32-7.38-5.35-8.67A86.81,86.81,0,0,0,196,222.17C194.19,221.62,170,214.6,152.48,221.62Z" style="fill:#8ABF63;stroke:#263238;stroke-linecap:round;stroke-linejoin:round"></path><path d="M159.13,210.91s-2.4.56-3,2.4-4.24,7.38-3.69,8.31,6.83,16,22,24.54c5.77,3.24,14.58,16.61,14.58,16.61L187.55,248l1.84,9.6s-.74-6.28,2.22-10,5.53-4.43,5.53-4.43a86.43,86.43,0,0,1-2-9.78,99.94,99.94,0,0,0-3-12.37Z" style="fill:#8ABF63;stroke:#263238;stroke-linecap:round;stroke-linejoin:round"></path><path d="M161.16,203l-2,7.93s6.64,15.69,12.73,21.78S187.55,248,187.55,248s3.13-12.18,3.87-18.27a83,83,0,0,0,.74-8.68s-8.67-6.46-11.44-13.28-5.91-26.58-5.91-26.58l-13.1,8.67Z" style="fill:#fff;stroke:#263238;stroke-linecap:round;stroke-linejoin:round"></path><path d="M220.84,430.32s6.46,9.49,8.48,11.1,7.87,5.86,8.08,8.48-2.43,5.66-3.84,6.46-16.76.81-19.58,1-10.3-2-13.93-6.46-4.17-19.47-4.17-19.47A67.72,67.72,0,0,1,220.84,430.32Z" style="fill:#fff;stroke:#263238;stroke-linecap:round;stroke-linejoin:round"></path><path d="M236.74,452.68c-.89.12-2.18.33-3.58.66-2.63.6-13.93,1.21-19.39,1s-3.23-.21-8.48-4a30.36,30.36,0,0,0-7-4,9.84,9.84,0,0,0,1.75,4.58c3.63,4.44,11.1,6.67,13.93,6.46s18.17-.2,19.58-1A9.47,9.47,0,0,0,236.74,452.68Z" style="fill:#fff;stroke:#263238;stroke-linecap:round;stroke-linejoin:round"></path><path d="M218.36,324.83s15.36-4.54,24,1.29,9.3,17.95,8,25.95-26.6,62.28-27.46,64.66a51.55,51.55,0,0,0-1.52,5.19,1.93,1.93,0,0,1,1.3,1.73,55.8,55.8,0,0,1-1.08,6.71c-.22.86-2.38.64-6.71.64s-18.81,3.25-18.81,3.25a17.79,17.79,0,0,1-.21-5.84c.43-3,1.29-7.79,1.29-7.79s.44-12.32,1.73-15.78,14.92-62.5,14.92-62.5-4.75-14.92-5.62-15.57S218.36,324.83,218.36,324.83Z" style="fill:#263238;stroke:#263238;stroke-linecap:round;stroke-linejoin:round"></path><path d="M229.42,260.23a35.72,35.72,0,0,0-1.43-7.37c-1-2.53-3-4.92-1.54-5.49s4.64.71,5.2,2.68a22.67,22.67,0,0,1,.85,4.08c0,.42-2.11,7.31-2.11,7.31Z" style="fill:#fff;stroke:#263238;stroke-linecap:round;stroke-linejoin:round"></path><path d="M206.17,305.82s24.18-26.21,24.55-27.69-1.3-17.9-1.3-17.9l3.69-15s2.4-5.17,3-6.46,2.58-1.1,2.58-1.1,1.11-3.14,2.4-2.4a3.67,3.67,0,0,1,1.48,2.58s3.32-1.29,3.32,2-1.29,11.07-1.29,11.81,3.13-3,4.24-5,2.77-1.66,2.77.55-2.58,5.91-2.95,7.2-2,5.91-2,5.91.37,11.07-1.11,15.87a26.38,26.38,0,0,1-4.43,8.3S229.42,310.06,226.47,316s-7.57,14.58-8.49,15.68-5.9.74-9-.18-13.29-7-13.29-7Z" style="fill:#fff;stroke:#263238;stroke-linecap:round;stroke-linejoin:round"></path><polyline points="242.53 237.9 239.95 247.23 238.12 252.86" style="fill:none;stroke:#263238;stroke-linecap:round;stroke-linejoin:round"></polyline><path d="M238.65,237.72s-4.33,12.75-4.75,14.16" style="fill:none;stroke:#263238;stroke-linecap:round;stroke-linejoin:round"></path><line x1="244.56" y1="251.74" x2="242.63" y2="254.69" style="fill:none;stroke:#263238;stroke-linecap:round;stroke-linejoin:round"></line><path d="M162.82,254.47s10,7.56,14.58,16,13.47,18.46,14.76,19.94,5.17,6.09,5.17,6.09,7.57,4.79,8.67,7.19-.55,4.06-2.21,6.83-5.91,13.11-7.57,14-7.93-.19-9.78-.92-7-5-7-5S142,294,135.5,289.16" style="fill:#8ABF63;stroke:#263238;stroke-linecap:round;stroke-linejoin:round"></path><line x1="184.91" y1="313.9" x2="181.27" y2="318.51" style="fill:none;stroke:#263238;stroke-linecap:round;stroke-linejoin:round"></line><line x1="197.14" y1="298.39" x2="187.26" y2="310.92" style="fill:none;stroke:#263238;stroke-linecap:round;stroke-linejoin:round"></line><path d="M138.09,300.24s12.55,4.8,19.93,4.24" style="fill:none;stroke:#263238;stroke-linecap:round;stroke-linejoin:round"></path><path d="M139.82,319.15a28.75,28.75,0,0,1-5.24.46" style="fill:none;stroke:#263238;stroke-linecap:round;stroke-linejoin:round"></path><path d="M164.85,310.94s-11.93,5.35-22.19,7.65" style="fill:none;stroke:#263238;stroke-linecap:round;stroke-linejoin:round"></path><path d="M192.14,280.73c.07,1.52.08,3,0,4.37" style="fill:none;stroke:#263238;stroke-linecap:round;stroke-linejoin:round"></path><path d="M190.13,264.43a137.63,137.63,0,0,1,1.85,13.7" style="fill:none;stroke:#263238;stroke-linecap:round;stroke-linejoin:round"></path><path d="M127.38,339.18s-3.95,9.87-3.08,17.44a10.41,10.41,0,0,0,8.21,9.29h45.42l-4.76,50.39s-3,1.51-3,3.24.22,13.84.22,13.84,10.59-2.16,14-2.38,11.47.44,11.47.44a44.83,44.83,0,0,0,2.81-5.63c.21-1.08,0-5.62,0-6.48S213,370.24,216.2,364.18s5.62-22.05,3.68-29-10.16-12.33-16.22-13.63-11.46-2.59-27.9-.86-28.76,6-34.81,9.08S127.38,339.18,127.38,339.18Z" style="fill:#263238;stroke:#263238;stroke-linecap:round;stroke-linejoin:round"></path><path d="M177.49,363.32s1.3-20.33,2.82-22.92a68.88,68.88,0,0,1,5.4-7.14" style="fill:none;stroke:#8f8f8f;stroke-linecap:round;stroke-linejoin:round"></path><path d="M176.41,338.23a21,21,0,0,0-.43,13.2" style="fill:none;stroke:#8f8f8f;stroke-linecap:round;stroke-linejoin:round"></path><path d="M194.15,430.36s6.92,10.16,9.08,11.89,8.43,6.27,8.65,9.08-2.6,6.06-4.11,6.92-18,.87-21,1.08-11-2.16-14.92-6.92-1.51-19-1.51-19S179.87,428.19,194.15,430.36Z" style="fill:#fff;stroke:#263238;stroke-linecap:round;stroke-linejoin:round"></path><path d="M211.18,454.31c-1,.13-2.34.35-3.84.7-2.81.65-14.92,1.3-20.76,1.08s-3.46-.22-9.09-4.33a32.29,32.29,0,0,0-7.48-4.25,10.49,10.49,0,0,0,1.86,4.9c3.89,4.76,11.9,7.14,14.92,6.92s19.47-.21,21-1.08A10.21,10.21,0,0,0,211.18,454.31Z" style="fill:#fff;stroke:#263238;stroke-linecap:round;stroke-linejoin:round"></path><path d="M201.76,172.53s3.14,11.44,3,13.65a7.38,7.38,0,0,1-1.66,3.88s3.32,7.93,4.06,9.6.92,3-.92,3.69a15.44,15.44,0,0,1-3.32.92s-.56,9.78-.19,11.44,1.48,5.35,0,6.65a11.15,11.15,0,0,1-8.49,2,30.34,30.34,0,0,1-5.17-1.67s-7.75-3.69-10.7-6.27-3.51-9.41-3.88-12.55-1.47-11.07-2-12.73-4.61-3.51-6.27-.37,0,8.67.55,9.59,1.11,2,1.11,2a13.3,13.3,0,0,1-4.43,1.85,7.36,7.36,0,0,1-5-2c-.56-.74-6.46-17.9-9.78-26.58s7.19-18.82,12.55-22.51,19.74-3.14,23.07-2a25.54,25.54,0,0,1,6.27,3.32s7.75-3.32,10.7-.37,1.67,5,1.67,5,7.38.37,7.56,5.91-4.61,5.72-4.61,5.72,1.29,1.66-.56,2A7.6,7.6,0,0,1,201.76,172.53Z" style="fill:#fff;stroke:#263238;stroke-linecap:round;stroke-linejoin:round"></path><path d="M193.82,201c-4.43,0-10.89,6.27-11.44,5.35a23.89,23.89,0,0,1-2.58-8.12c-.56-4.06,0-10.52,0-11.26s7.56-3.69,9-5.17-4.8-7-5-8.67,11.44-1.85,12.92-1.29a24.48,24.48,0,0,0,5,.74,7.6,7.6,0,0,0,3.5.18c1.85-.37.56-2,.56-2s4.8-.18,4.61-5.72-7.56-5.91-7.56-5.91,1.29-2-1.67-5-10.7.37-10.7.37a25.54,25.54,0,0,0-6.27-3.32c-3.33-1.11-17.72-1.66-23.07,2S145.28,167,148.61,175.66s9.22,25.84,9.78,26.58a7.36,7.36,0,0,0,5,2,13.3,13.3,0,0,0,4.43-1.85s-.55-1.1-1.11-2-2.21-6.46-.55-9.59,5.72-1.29,6.27.37,1.66,9.59,2,12.73.93,10,3.88,12.55,10.7,6.27,10.7,6.27a30.34,30.34,0,0,0,5.17,1.67,11.15,11.15,0,0,0,8.49-2c1.48-1.3.37-5,0-6.65s.19-11.44.19-11.44S198.25,201,193.82,201Z" style="fill:#263238;stroke:#263238;stroke-linecap:round;stroke-linejoin:round"></path><path d="M201,207.59s-3.32,2-6.28-3" style="fill:none;stroke:#8f8f8f;stroke-linecap:round;stroke-linejoin:round"></path><path d="M200.65,187.48a5,5,0,0,0-5.91-.37" style="fill:none;stroke:#263238;stroke-linecap:round;stroke-linejoin:round"></path><ellipse cx="198.62" cy="192" rx="1.11" ry="2.31" style="fill:#263238"></ellipse></g></svg>
