<svg width="60" height="60" viewBox="0 0 60 60" fill="none" xmlns="http://www.w3.org/2000/svg">
<circle cx="30" cy="30" r="30" fill="#6DBF56"/>
<path d="M31.1409 49.9998L27.087 49.9998C11.5554 46.8583 17.7969 26.689 31.9854 29.1273C46.174 31.5655 46.6189 49.4085 31.1409 49.9998Z" fill="#194159" stroke="#194159"/>
<ellipse cx="4.24006" cy="6.41553" rx="4.24006" ry="6.41553" transform="matrix(0.819055 0.573715 -0.590232 0.807234 46.0543 21.9539)" fill="#194159"/>
<ellipse cx="4.2543" cy="6.39359" rx="4.2543" ry="6.39359" transform="matrix(0.908575 -0.417721 0.43267 0.901552 8 24.9529)" fill="#194159"/>
<ellipse cx="4.95514" cy="8.12443" rx="4.95514" ry="8.12443" transform="matrix(0.939924 0.341384 -0.354509 0.935053 35.0658 10.2529)" fill="#194159"/>
<ellipse cx="5.18247" cy="8.48703" rx="5.18247" ry="8.48703" transform="matrix(0.95264 -0.3041 0.316129 0.948716 15.8326 13.1521)" fill="#194159"/>
<path d="M27.5938 37.5667L29.4306 37.1557C30.7806 36.8536 32.1301 37.7009 32.4447 39.048V39.048C32.7593 40.3951 31.9199 41.732 30.5699 42.034L28.7331 42.445L27.5938 37.5667Z" fill="#194159"/>
</svg>
